<mxfile host="app.diagrams.net" modified="2023-02-26T03:48:18.578Z" agent="5.0 (Macintosh; Intel Mac OS X 10_15_7) AppleWebKit/537.36 (KHTML, like Gecko) Chrome/110.0.0.0 Safari/537.36" etag="vmvJ-NU9b1zYNFGqPnXX" version="20.8.23" type="github">
  <diagram name="第 1 页" id="4pP0lpbDHE4fTJNGHLhw">
    <mxGraphModel dx="1363" dy="1992" grid="1" gridSize="10" guides="1" tooltips="1" connect="1" arrows="1" fold="1" page="1" pageScale="1" pageWidth="827" pageHeight="1169" math="0" shadow="0">
      <root>
        <mxCell id="0" />
        <mxCell id="1" parent="0" />
        <mxCell id="IjWpDjFK4nKPUFHOdYXk-2" value="应用服务层" style="swimlane;horizontal=0;whiteSpace=wrap;html=1;" vertex="1" parent="1">
          <mxGeometry x="130" y="140" width="770" height="190" as="geometry" />
        </mxCell>
        <mxCell id="IjWpDjFK4nKPUFHOdYXk-4" value="JOB" style="rounded=0;whiteSpace=wrap;html=1;" vertex="1" parent="IjWpDjFK4nKPUFHOdYXk-2">
          <mxGeometry x="520" y="60" width="120" height="60" as="geometry" />
        </mxCell>
        <mxCell id="IjWpDjFK4nKPUFHOdYXk-1" value="oms后台API&lt;br&gt;UserController&lt;br&gt;OrderController" style="rounded=0;whiteSpace=wrap;html=1;" vertex="1" parent="IjWpDjFK4nKPUFHOdYXk-2">
          <mxGeometry x="40" y="60" width="180" height="60" as="geometry" />
        </mxCell>
        <mxCell id="IjWpDjFK4nKPUFHOdYXk-3" value="领域服务层" style="swimlane;horizontal=0;whiteSpace=wrap;html=1;" vertex="1" parent="1">
          <mxGeometry x="130" y="330" width="770" height="200" as="geometry" />
        </mxCell>
        <mxCell id="IjWpDjFK4nKPUFHOdYXk-5" value="订单服务&lt;br&gt;库存服务&lt;br&gt;售后服务" style="rounded=1;whiteSpace=wrap;html=1;" vertex="1" parent="IjWpDjFK4nKPUFHOdYXk-3">
          <mxGeometry x="70" y="60" width="120" height="60" as="geometry" />
        </mxCell>
        <mxCell id="IjWpDjFK4nKPUFHOdYXk-6" value="基础服务" style="rounded=1;whiteSpace=wrap;html=1;" vertex="1" parent="IjWpDjFK4nKPUFHOdYXk-3">
          <mxGeometry x="210" y="60" width="120" height="60" as="geometry" />
        </mxCell>
        <mxCell id="IjWpDjFK4nKPUFHOdYXk-17" value="日志服务" style="rounded=1;whiteSpace=wrap;html=1;" vertex="1" parent="IjWpDjFK4nKPUFHOdYXk-3">
          <mxGeometry x="340" y="60" width="120" height="60" as="geometry" />
        </mxCell>
        <mxCell id="IjWpDjFK4nKPUFHOdYXk-24" value="系统服务" style="rounded=1;whiteSpace=wrap;html=1;" vertex="1" parent="IjWpDjFK4nKPUFHOdYXk-3">
          <mxGeometry x="490" y="60" width="120" height="60" as="geometry" />
        </mxCell>
        <mxCell id="IjWpDjFK4nKPUFHOdYXk-27" value="用户服务" style="rounded=1;whiteSpace=wrap;html=1;" vertex="1" parent="IjWpDjFK4nKPUFHOdYXk-3">
          <mxGeometry x="630" y="60" width="120" height="60" as="geometry" />
        </mxCell>
        <mxCell id="IjWpDjFK4nKPUFHOdYXk-52" style="edgeStyle=orthogonalEdgeStyle;rounded=0;orthogonalLoop=1;jettySize=auto;html=1;exitX=0.5;exitY=0.5;exitDx=0;exitDy=0;exitPerimeter=0;entryX=0.5;entryY=0;entryDx=0;entryDy=0;" edge="1" parent="1" source="IjWpDjFK4nKPUFHOdYXk-11" target="IjWpDjFK4nKPUFHOdYXk-51">
          <mxGeometry relative="1" as="geometry" />
        </mxCell>
        <mxCell id="IjWpDjFK4nKPUFHOdYXk-11" value="Actor" style="shape=umlActor;verticalLabelPosition=bottom;verticalAlign=top;html=1;outlineConnect=0;" vertex="1" parent="1">
          <mxGeometry x="245" y="-120" width="30" height="60" as="geometry" />
        </mxCell>
        <mxCell id="IjWpDjFK4nKPUFHOdYXk-13" value="Order" style="whiteSpace=wrap;html=1;rounded=1;" vertex="1" parent="1">
          <mxGeometry x="200" y="590" width="120" height="60" as="geometry" />
        </mxCell>
        <mxCell id="IjWpDjFK4nKPUFHOdYXk-7" style="edgeStyle=orthogonalEdgeStyle;rounded=0;orthogonalLoop=1;jettySize=auto;html=1;exitX=0.5;exitY=1;exitDx=0;exitDy=0;" edge="1" parent="1" source="IjWpDjFK4nKPUFHOdYXk-1" target="IjWpDjFK4nKPUFHOdYXk-5">
          <mxGeometry relative="1" as="geometry" />
        </mxCell>
        <mxCell id="IjWpDjFK4nKPUFHOdYXk-8" style="edgeStyle=orthogonalEdgeStyle;rounded=0;orthogonalLoop=1;jettySize=auto;html=1;exitX=0.5;exitY=1;exitDx=0;exitDy=0;" edge="1" parent="1" source="IjWpDjFK4nKPUFHOdYXk-1" target="IjWpDjFK4nKPUFHOdYXk-5">
          <mxGeometry relative="1" as="geometry" />
        </mxCell>
        <mxCell id="IjWpDjFK4nKPUFHOdYXk-19" style="edgeStyle=orthogonalEdgeStyle;rounded=0;orthogonalLoop=1;jettySize=auto;html=1;exitX=0.5;exitY=1;exitDx=0;exitDy=0;" edge="1" parent="1" source="IjWpDjFK4nKPUFHOdYXk-5" target="IjWpDjFK4nKPUFHOdYXk-13">
          <mxGeometry relative="1" as="geometry" />
        </mxCell>
        <mxCell id="IjWpDjFK4nKPUFHOdYXk-23" value="basic" style="whiteSpace=wrap;html=1;rounded=1;" vertex="1" parent="1">
          <mxGeometry x="340" y="590" width="120" height="60" as="geometry" />
        </mxCell>
        <mxCell id="IjWpDjFK4nKPUFHOdYXk-25" value="log" style="whiteSpace=wrap;html=1;rounded=1;" vertex="1" parent="1">
          <mxGeometry x="470" y="590" width="120" height="60" as="geometry" />
        </mxCell>
        <mxCell id="IjWpDjFK4nKPUFHOdYXk-26" value="system" style="whiteSpace=wrap;html=1;rounded=1;" vertex="1" parent="1">
          <mxGeometry x="620" y="590" width="120" height="60" as="geometry" />
        </mxCell>
        <mxCell id="IjWpDjFK4nKPUFHOdYXk-28" value="用户服务" style="rounded=1;whiteSpace=wrap;html=1;" vertex="1" parent="1">
          <mxGeometry x="760" y="590" width="120" height="60" as="geometry" />
        </mxCell>
        <mxCell id="IjWpDjFK4nKPUFHOdYXk-29" style="edgeStyle=orthogonalEdgeStyle;rounded=0;orthogonalLoop=1;jettySize=auto;html=1;exitX=0.5;exitY=1;exitDx=0;exitDy=0;" edge="1" parent="1" source="IjWpDjFK4nKPUFHOdYXk-6" target="IjWpDjFK4nKPUFHOdYXk-23">
          <mxGeometry relative="1" as="geometry" />
        </mxCell>
        <mxCell id="IjWpDjFK4nKPUFHOdYXk-30" style="edgeStyle=orthogonalEdgeStyle;rounded=0;orthogonalLoop=1;jettySize=auto;html=1;exitX=0.5;exitY=1;exitDx=0;exitDy=0;entryX=0.5;entryY=0;entryDx=0;entryDy=0;" edge="1" parent="1" source="IjWpDjFK4nKPUFHOdYXk-17" target="IjWpDjFK4nKPUFHOdYXk-25">
          <mxGeometry relative="1" as="geometry" />
        </mxCell>
        <mxCell id="IjWpDjFK4nKPUFHOdYXk-31" style="edgeStyle=orthogonalEdgeStyle;rounded=0;orthogonalLoop=1;jettySize=auto;html=1;exitX=0.5;exitY=1;exitDx=0;exitDy=0;entryX=0.5;entryY=0;entryDx=0;entryDy=0;" edge="1" parent="1" source="IjWpDjFK4nKPUFHOdYXk-24" target="IjWpDjFK4nKPUFHOdYXk-26">
          <mxGeometry relative="1" as="geometry" />
        </mxCell>
        <mxCell id="IjWpDjFK4nKPUFHOdYXk-32" style="edgeStyle=orthogonalEdgeStyle;rounded=0;orthogonalLoop=1;jettySize=auto;html=1;exitX=0.5;exitY=1;exitDx=0;exitDy=0;" edge="1" parent="1" source="IjWpDjFK4nKPUFHOdYXk-27" target="IjWpDjFK4nKPUFHOdYXk-28">
          <mxGeometry relative="1" as="geometry" />
        </mxCell>
        <mxCell id="IjWpDjFK4nKPUFHOdYXk-49" value="网关" style="swimlane;horizontal=0;whiteSpace=wrap;html=1;" vertex="1" parent="1">
          <mxGeometry x="130" y="-10" width="770" height="150" as="geometry" />
        </mxCell>
        <mxCell id="IjWpDjFK4nKPUFHOdYXk-51" value="gateway" style="shape=parallelogram;perimeter=parallelogramPerimeter;whiteSpace=wrap;html=1;fixedSize=1;" vertex="1" parent="IjWpDjFK4nKPUFHOdYXk-49">
          <mxGeometry x="70" y="50" width="120" height="60" as="geometry" />
        </mxCell>
        <mxCell id="IjWpDjFK4nKPUFHOdYXk-53" style="edgeStyle=orthogonalEdgeStyle;rounded=0;orthogonalLoop=1;jettySize=auto;html=1;exitX=0.5;exitY=1;exitDx=0;exitDy=0;entryX=0.5;entryY=0;entryDx=0;entryDy=0;" edge="1" parent="1" source="IjWpDjFK4nKPUFHOdYXk-51" target="IjWpDjFK4nKPUFHOdYXk-1">
          <mxGeometry relative="1" as="geometry" />
        </mxCell>
        <mxCell id="IjWpDjFK4nKPUFHOdYXk-56" value="DB" style="swimlane;horizontal=0;whiteSpace=wrap;html=1;" vertex="1" parent="1">
          <mxGeometry x="130" y="530" width="770" height="170" as="geometry" />
        </mxCell>
      </root>
    </mxGraphModel>
  </diagram>
</mxfile>
